<svg xmlns="http://www.w3.org/2000/svg" viewBox="0 0 64 64">
  <defs>
    <pattern id="s" patternUnits="userSpaceOnUse" width="1" height="1">
      <line x1="0" y1="0" x2="0" y2="1" stroke="#fd0000" stroke-width="0.4"/>
    </pattern>
    <symbol id="w" viewBox="0 6 32 18">
      <path fill="url(#s)" stroke="#fd0000" stroke-width="1.4" stroke-linejoin="round" d="M29.5,12 C30.8,14.5 30.8,17.2 30.2,19.9 C29.7,22.2 28,23 26,22 C25.4,21.7 24.8,21.4 24.3,21.1 C21.7,19.5 19,19.3 16.1,20.4 C13.4,21.5 10.6,21.6 7.8,20.8 C3.3,19.4 0.4,14.6 1.4,10.2 C2,7.7 3.7,7 5.9,8.2 C6.2,8.4 6.5,8.6 6.8,8.8 C9.7,10.6 12.7,11.2 16,9.9 C17.3,9.3 18.7,8.9 20,8.6 C24,7.6 27.5,8.9 29.5,12 Z"/>
    </symbol>
  </defs>
  <rect width="64" height="64" rx="10" fill="#2d2631"/>
  <rect x="14" y="6" width="36" height="52" rx="4" fill="white" stroke="#fd0000" stroke-width="2"/>
  <use href="#w" x="17" y="8" width="30" height="15"/>
  <use href="#w" x="17" y="25" width="30" height="15"/>
  <use href="#w" x="17" y="42" width="30" height="15"/>
</svg>
